# Blender v2.79 (sub 0) OBJ File: ''
# www.blender.org
mtllib Sword.mtl
o Sword_Plane
v 0.731103 0.893433 1.156800
v -0.013795 0.928013 1.947324
v -0.013795 0.810644 1.370417
v 0.542688 0.810644 0.814091
v -0.758693 0.893433 -1.156800
v -0.013795 0.928013 -1.947324
v -0.013795 0.810644 -1.370417
v -0.570278 0.810644 -0.814091
v -0.758693 0.893433 1.156800
v -0.570278 0.810644 0.814091
v 0.731103 0.893433 -1.156800
v 0.542688 0.810644 -0.814091
v -1.267735 1.613712 0.000000
v -0.758693 1.613712 1.156800
v -0.575529 1.719759 0.821772
v -0.959402 1.719759 0.000000
v 1.240145 1.613712 0.000000
v 0.731103 1.613712 -1.156800
v 0.547939 1.719759 -0.821772
v 0.931812 1.719759 0.000000
v -0.758693 1.613712 -1.156800
v -0.575529 1.719759 -0.821772
v 0.731103 1.613712 1.156800
v 0.547939 1.719759 0.821772
v 0.753049 1.253572 -1.190881
v -0.013795 1.253572 -2.297862
v -0.013795 1.579132 -1.947324
v -0.780639 1.253572 1.190881
v -0.013795 1.253572 2.297862
v -0.013795 1.579132 1.947324
v -0.780639 1.253572 -1.190881
v 0.753049 1.253572 1.190881
v 1.277088 1.253572 0.000000
v -1.304678 1.253572 0.000000
v -1.267735 0.893433 0.000000
v 1.240145 0.893433 0.000000
v -0.013795 1.719759 0.000000
v -0.013795 1.719759 -1.383348
v -0.013795 1.719759 1.383348
v -0.013795 0.810644 0.000000
v 0.922973 0.810644 0.000000
v -0.950563 0.810644 0.000000
v 0.961536 9.265779 0.000002
v 0.119267 9.265778 -1.557196
v 0.111360 9.614491 -1.550347
v 0.959668 9.614491 0.000002
v 0.037287 12.075425 0.000002
v 0.111360 9.614491 1.550351
v 0.119267 9.265778 1.557200
v 0.171873 3.412700 0.916650
v 0.525466 3.412700 0.000001
v 0.616303 5.479963 0.000001
v 0.144929 5.479964 1.052522
v 0.171873 3.412700 -0.916648
v 0.144929 5.479963 -1.052520
v 0.525466 1.345436 0.000000
v 0.171873 1.345436 -0.863096
v 0.171873 1.345436 0.863096
v 0.787195 7.547226 0.000001
v 0.133616 7.547226 1.298505
v 0.133616 7.547226 -1.298503
v -0.991103 9.265779 0.000002
v -0.989236 9.614491 0.000002
v -0.140928 9.614491 -1.550347
v -0.148835 9.265778 -1.557196
v -0.140928 9.614491 1.550351
v -0.066854 12.075425 0.000002
v -0.148835 9.265778 1.557200
v -0.201441 3.412700 0.916650
v -0.174496 5.479964 1.052522
v -0.645871 5.479963 0.000001
v -0.555034 3.412700 0.000001
v -0.174496 5.479963 -1.052520
v -0.201441 3.412700 -0.916648
v -0.555034 1.345436 0.000000
v -0.201441 1.345436 -0.863096
v -0.201441 1.345436 0.863096
v -0.163184 7.547226 1.298505
v -0.816763 7.547226 0.000001
v -0.163184 7.547226 -1.298503
v 0.125176 8.406503 -1.413151
v -0.154744 8.406503 -1.413151
v -0.013795 -0.890957 -0.628775
v -0.013795 0.912632 -0.700522
v 0.481549 0.912632 -0.495344
v 0.430816 -0.890957 -0.444611
v 0.686728 0.912632 0.000000
v 0.614980 -0.890957 -0.000000
v 0.481549 0.912632 0.495344
v 0.430816 -0.890957 0.444611
v -0.013795 0.912632 0.700522
v -0.013795 -0.890957 0.628775
v -0.509139 0.912632 0.495344
v -0.458406 -0.890957 0.444611
v -0.714317 0.912632 0.000000
v -0.642570 -0.890957 -0.000000
v -0.509139 0.912632 -0.495344
v -0.458406 -0.890957 -0.444611
v 0.686728 -2.694548 -0.000000
v 0.481549 -2.694548 0.495344
v 0.432191 -2.814332 0.445986
v 0.616925 -2.814332 -0.000000
v -0.509139 -2.694548 -0.495344
v -0.013795 -2.694548 -0.700522
v -0.714317 -2.694548 -0.000000
v -0.509139 -2.694548 0.495344
v -0.013795 -2.694548 0.700522
v 0.481549 -2.694548 -0.495344
v -0.013795 -2.814332 -0.630720
v 0.432191 -2.814332 -0.445986
v -0.013795 -2.596804 -0.000000
v -0.644514 -2.814332 -0.000000
v -0.459781 -2.814332 0.445986
v -0.013795 -2.814332 0.630720
v -0.459781 -2.814332 -0.445986
v 0.125176 8.406503 1.413153
v -0.154744 8.406503 1.413153
v -0.894717 8.406503 0.000001
v 0.865150 8.406503 0.000001
vt 0.717756 0.491760
vt 0.672524 0.458350
vt 0.694277 0.448541
vt 0.735815 0.469323
vt 0.819723 0.338108
vt 0.864984 0.371495
vt 0.843236 0.381317
vt 0.801656 0.360551
vt 0.677432 0.402322
vt 0.706214 0.403623
vt 0.860111 0.427517
vt 0.831338 0.426215
vt 0.706600 0.277197
vt 0.608158 0.381383
vt 0.564256 0.335893
vt 0.689388 0.239059
vt 0.830939 0.552717
vt 0.929409 0.448444
vt 0.973361 0.493945
vt 0.848162 0.590883
vt 0.849854 0.272309
vt 0.844788 0.209292
vt 0.687601 0.557569
vt 0.692641 0.620630
vt 0.889354 0.436315
vt 0.877231 0.365964
vt 0.896445 0.357286
vt 0.648196 0.393520
vt 0.660274 0.463874
vt 0.641055 0.472540
vt 0.832466 0.310362
vt 0.705006 0.519509
vt 0.815337 0.518146
vt 0.722193 0.311750
vt 0.735278 0.340745
vt 0.802245 0.489136
vt 0.035705 0.035070
vt 0.042447 0.020638
vt 0.052252 0.032356
vt 0.056818 0.044933
vt 0.028964 0.049502
vt 0.044242 0.049502
vt 0.019158 0.037785
vt 0.014592 0.025208
vt 0.027168 0.020638
vt 0.973361 0.322549
vt 0.564119 0.507234
vt 0.077812 0.034935
vt 0.098727 0.044706
vt 0.086269 0.049233
vt 0.071133 0.049233
vt 0.084490 0.020638
vt 0.094204 0.032246
vt 0.069354 0.020638
vt 0.056896 0.025165
vt 0.061419 0.037625
vt 0.793507 0.469774
vt 0.744012 0.360097
vt 0.896099 0.849462
vt 0.911472 0.777828
vt 0.924772 0.782319
vt 0.910979 0.850490
vt 0.984418 0.856250
vt 0.916215 0.920618
vt 0.901504 0.923639
vt 0.606364 0.873883
vt 0.613716 0.825443
vt 0.716481 0.833456
vt 0.708479 0.893620
vt 0.613105 0.775551
vt 0.720253 0.772688
vt 0.536018 0.821937
vt 0.533022 0.792252
vt 0.532034 0.849227
vt 0.820822 0.843121
vt 0.814755 0.916156
vt 0.828460 0.771183
vt 0.150220 0.863353
vt 0.135082 0.865177
vt 0.122414 0.787649
vt 0.138365 0.785064
vt 0.141197 0.943488
vt 0.020202 0.879024
vt 0.157304 0.942209
vt 0.426229 0.876278
vt 0.331349 0.896232
vt 0.323436 0.842572
vt 0.419665 0.831574
vt 0.318457 0.788368
vt 0.415964 0.785266
vt 0.501418 0.823798
vt 0.515515 0.780640
vt 0.519493 0.858726
vt 0.236567 0.921425
vt 0.226822 0.854131
vt 0.220313 0.786415
vt 0.705191 0.909735
vt 0.602038 0.890201
vt 0.871471 0.772626
vt 0.828832 0.756064
vt 0.872877 0.758958
vt 0.720115 0.756000
vt 0.610785 0.756096
vt 0.929953 0.773597
vt 0.989172 0.856295
vt 0.922001 0.931299
vt 0.903854 0.937350
vt 0.812114 0.931458
vt 0.207393 0.623261
vt 0.182626 0.661646
vt 0.052839 0.531851
vt 0.097244 0.522378
vt 0.052836 0.348304
vt 0.090797 0.373345
vt 0.182599 0.218522
vt 0.191741 0.263399
vt 0.366120 0.218531
vt 0.341356 0.256905
vt 0.495895 0.348316
vt 0.451543 0.357809
vt 0.495931 0.531854
vt 0.457966 0.506462
vt 0.366167 0.661646
vt 0.356875 0.616703
vt 0.127360 0.385699
vt 0.210028 0.296005
vt 0.223689 0.323097
vt 0.156226 0.395577
vt 0.340465 0.586050
vt 0.219748 0.590827
vt 0.420835 0.495119
vt 0.418173 0.372979
vt 0.330546 0.289879
vt 0.131388 0.507696
vt 0.144591 0.022055
vt 0.144591 0.035187
vt 0.128739 0.028621
vt 0.391943 0.485367
vt 0.390722 0.385905
vt 0.320887 0.318444
vt 0.326682 0.559106
vt 0.158789 0.494500
vt 0.229620 0.562246
vt 0.135305 0.012770
vt 0.112887 0.022055
vt 0.122173 0.012770
vt 0.122173 0.044473
vt 0.112887 0.035187
vt 0.135305 0.044473
vt 0.858761 0.922711
vt 0.857664 0.937380
vt 0.914993 0.766319
vt 0.197193 0.931815
vt 0.187642 0.858845
vt 0.179586 0.785680
vt 0.860831 0.846649
vn 0.6195 -0.6790 0.3939
vn -0.0000 -0.7315 0.6818
vn 0.0000 -0.9908 0.1355
vn 0.1181 -0.9901 0.0756
vn -0.6195 -0.6790 -0.3939
vn -0.0000 -0.7315 -0.6818
vn -0.0000 -0.9908 -0.1355
vn -0.1181 -0.9901 -0.0756
vn -0.6195 -0.6790 0.3939
vn -0.1181 -0.9901 0.0756
vn 0.6195 -0.6790 -0.3939
vn 0.1181 -0.9901 -0.0756
vn -0.8243 0.5661 0.0000
vn -0.6357 0.6560 0.4069
vn -0.1520 0.9838 0.0956
vn -0.2010 0.9796 0.0000
vn 0.8243 0.5661 0.0000
vn 0.6357 0.6560 -0.4069
vn 0.1520 0.9838 -0.0956
vn 0.2010 0.9796 0.0000
vn -0.6357 0.6560 -0.4069
vn -0.1520 0.9838 -0.0956
vn 0.6357 0.6560 0.4069
vn 0.1520 0.9838 0.0956
vn 0.8543 -0.0000 -0.5198
vn -0.0000 -0.0000 -1.0000
vn -0.0000 0.7222 -0.6917
vn -0.8543 -0.0000 0.5198
vn 0.0000 -0.0000 1.0000
vn 0.0000 0.7222 0.6917
vn -0.8543 -0.0000 -0.5198
vn 0.8543 -0.0000 0.5198
vn 1.0000 -0.0000 -0.0000
vn -1.0000 -0.0000 0.0000
vn -0.8076 -0.5897 -0.0000
vn 0.8076 -0.5897 -0.0000
vn 0.0000 1.0000 0.0000
vn -0.0000 0.9857 -0.1682
vn 0.0000 0.9857 0.1682
vn 0.0000 -1.0000 -0.0000
vn 0.1558 -0.9878 -0.0000
vn -0.1558 -0.9878 -0.0000
vn 0.9993 -0.0380 0.0000
vn 0.5013 -0.0622 -0.8630
vn 0.4690 0.2497 -0.8471
vn 0.9838 0.1792 0.0000
vn 0.4535 0.8913 0.0000
vn 0.4690 0.2497 0.8471
vn 0.5013 -0.0622 0.8630
vn 0.5624 -0.0371 0.8261
vn 0.9999 -0.0172 0.0000
vn 0.9988 -0.0482 0.0000
vn 0.5452 -0.0810 0.8344
vn 0.5624 -0.0371 -0.8261
vn 0.5452 -0.0810 -0.8344
vn 0.7752 -0.6317 -0.0000
vn 0.4491 -0.6085 -0.6543
vn 0.4491 -0.6085 0.6543
vn 0.9975 -0.0708 0.0000
vn 0.5265 -0.1108 0.8429
vn 0.5265 -0.1108 -0.8429
vn -0.9993 -0.0380 -0.0000
vn -0.9838 0.1792 -0.0000
vn -0.4690 0.2497 -0.8471
vn -0.5013 -0.0622 -0.8630
vn -0.4690 0.2497 0.8471
vn -0.4535 0.8913 0.0000
vn -0.5013 -0.0622 0.8630
vn -0.5624 -0.0371 0.8261
vn -0.5452 -0.0810 0.8344
vn -0.9988 -0.0482 0.0000
vn -0.9999 -0.0172 0.0000
vn -0.5452 -0.0810 -0.8344
vn -0.5624 -0.0371 -0.8261
vn -0.7752 -0.6317 -0.0000
vn -0.4491 -0.6085 -0.6543
vn -0.4491 -0.6085 0.6543
vn -0.5265 -0.1108 0.8429
vn -0.9975 -0.0708 0.0000
vn -0.5265 -0.1108 -0.8429
vn 0.5173 -0.1314 -0.8457
vn -0.5173 -0.1314 -0.8457
vn 0.0000 -0.0397 -0.9992
vn 0.7065 -0.0397 -0.7065
vn 0.7071 0.0000 -0.7071
vn 0.9992 -0.0397 0.0000
vn 0.7065 -0.0397 0.7065
vn 0.7071 -0.0000 0.7071
vn 0.0000 -0.0397 0.9992
vn -0.7065 -0.0397 0.7065
vn -0.7071 -0.0000 0.7071
vn -0.9992 -0.0397 0.0000
vn -0.7065 -0.0397 -0.7065
vn -0.7071 0.0000 -0.7071
vn 0.9739 -0.2269 0.0000
vn 0.6887 -0.2269 0.6887
vn 0.3331 -0.8821 0.3331
vn 0.4711 -0.8821 0.0000
vn -0.6887 -0.2269 -0.6887
vn 0.0000 -0.2269 -0.9739
vn -0.9739 -0.2269 0.0000
vn -0.6887 -0.2269 0.6887
vn 0.0000 -0.2269 0.9739
vn 0.6887 -0.2269 -0.6887
vn 0.0000 -0.8821 -0.4711
vn 0.3331 -0.8821 -0.3331
vn -0.4711 -0.8821 -0.0000
vn -0.3331 -0.8821 0.3331
vn 0.0000 -0.8821 0.4711
vn -0.3331 -0.8821 -0.3331
vn 0.5173 -0.1314 0.8457
vn -0.5173 -0.1314 0.8457
vn -0.9963 -0.0860 0.0000
vn 0.9963 -0.0860 -0.0000
usemtl SwordTex
s 1
f 1/1/1 2/2/2 3/3/3 4/4/4
f 5/5/5 6/6/6 7/7/7 8/8/8
f 2/2/2 9/9/9 10/10/10 3/3/3
f 6/6/6 11/11/11 12/12/12 7/7/7
f 13/13/13 14/14/14 15/15/15 16/16/16
f 17/17/17 18/18/18 19/19/19 20/20/20
f 21/21/21 13/13/13 16/16/16 22/22/22
f 23/23/23 17/17/17 20/20/20 24/24/24
f 25/25/25 26/26/26 27/27/27 18/18/18
f 28/28/28 29/29/29 30/30/30 14/14/14
f 26/26/26 31/31/31 21/21/21 27/27/27
f 29/29/29 32/32/32 23/23/23 30/30/30
f 32/32/32 33/33/33 17/17/17 23/23/23
f 31/31/31 34/34/34 13/13/13 21/21/21
f 33/33/33 25/25/25 18/18/18 17/17/17
f 34/34/34 28/28/28 14/14/14 13/13/13
f 35/35/35 9/9/9 28/28/28 34/34/34
f 36/36/36 11/11/11 25/25/25 33/33/33
f 5/5/5 35/35/35 34/34/34 31/31/31
f 1/1/1 36/36/36 33/33/33 32/32/32
f 2/2/2 1/1/1 32/32/32 29/29/29
f 6/6/6 5/5/5 31/31/31 26/26/26
f 9/9/9 2/2/2 29/29/29 28/28/28
f 11/11/11 6/6/6 26/26/26 25/25/25
f 37/37/37 20/38/20 19/39/19 38/40/38
f 16/41/16 37/37/37 38/40/38 22/42/22
f 15/43/15 39/44/39 37/37/37 16/41/16
f 39/44/39 24/45/24 20/38/20 37/37/37
f 18/18/18 27/27/27 38/46/38 19/19/19
f 14/14/14 30/30/30 39/47/39 15/15/15
f 27/27/27 21/21/21 22/22/22 38/46/38
f 30/30/30 23/23/23 24/24/24 39/47/39
f 40/48/40 7/49/7 12/50/12 41/51/41
f 42/52/42 8/53/8 7/49/7 40/48/40
f 10/54/10 42/52/42 40/48/40 3/55/3
f 3/55/3 40/48/40 41/51/41 4/56/4
f 36/36/36 1/1/1 4/4/4 41/57/41
f 35/35/35 5/5/5 8/8/8 42/58/42
f 11/11/11 36/36/36 41/57/41 12/12/12
f 9/9/9 35/35/35 42/58/42 10/10/10
f 43/59/43 44/60/44 45/61/45 46/62/46
f 46/62/46 47/63/47 48/64/48
f 45/61/45 47/63/47 46/62/46
f 49/65/49 43/59/43 46/62/46 48/64/48
f 50/66/50 51/67/51 52/68/52 53/69/53
f 51/67/51 54/70/54 55/71/55 52/68/52
f 56/72/56 57/73/57 54/70/54 51/67/51
f 58/74/58 56/72/56 51/67/51 50/66/50
f 53/69/53 52/68/52 59/75/59 60/76/60
f 52/68/52 55/71/55 61/77/61 59/75/59
f 62/78/62 63/79/63 64/80/64 65/81/65
f 63/79/63 66/82/66 67/83/67
f 64/80/64 63/79/63 67/83/67
f 68/84/68 66/82/66 63/79/63 62/78/62
f 69/85/69 70/86/70 71/87/71 72/88/72
f 72/88/72 71/87/71 73/89/73 74/90/74
f 75/91/75 72/88/72 74/90/74 76/92/76
f 77/93/77 69/85/69 72/88/72 75/91/75
f 70/86/70 78/94/78 79/95/79 71/87/71
f 71/87/71 79/95/79 80/96/80 73/89/73
f 50/66/50 53/69/53 70/97/70 69/98/69
f 58/74/58 50/66/50 69/98/69 77/93/77
f 81/99/81 61/77/61 80/100/80 82/101/82
f 61/77/61 55/71/55 73/102/73 80/100/80
f 54/70/54 57/73/57 76/92/76 74/103/74
f 47/63/47 45/61/45 64/104/64 67/105/67
f 56/72/56 58/74/58 77/93/77 75/91/75
f 55/71/55 54/70/54 74/103/74 73/102/73
f 57/73/57 56/72/56 75/91/75 76/92/76
f 49/65/49 48/64/48 66/106/66 68/107/68
f 53/69/53 60/76/60 78/108/78 70/97/70
f 48/64/48 47/63/47 67/105/67 66/106/66
f 83/109/26 84/110/83 85/111/84 86/112/85
f 86/112/85 85/111/84 87/113/86 88/114/33
f 88/114/33 87/113/86 89/115/87 90/116/88
f 90/116/88 89/115/87 91/117/89 92/118/29
f 92/118/29 91/117/89 93/119/90 94/120/91
f 94/120/91 93/119/90 95/121/92 96/122/34
f 96/122/34 95/121/92 97/123/93 98/124/94
f 98/124/94 97/123/93 84/110/83 83/109/26
f 99/125/95 100/126/96 101/127/97 102/128/98
f 103/129/99 98/124/94 83/109/26 104/130/100
f 105/131/101 96/122/34 98/124/94 103/129/99
f 106/132/102 94/120/91 96/122/34 105/131/101
f 107/133/103 92/118/29 94/120/91 106/132/102
f 100/126/96 90/116/88 92/118/29 107/133/103
f 99/125/95 88/114/33 90/116/88 100/126/96
f 108/134/104 86/112/85 88/114/33 99/125/95
f 104/130/100 83/109/26 86/112/85 108/134/104
f 109/135/105 110/136/106 111/137/40
f 106/132/102 105/131/101 112/138/107 113/139/108
f 100/126/96 107/133/103 114/140/109 101/127/97
f 105/131/101 103/129/99 115/141/110 112/138/107
f 108/134/104 99/125/95 102/128/98 110/142/106
f 107/133/103 106/132/102 113/139/108 114/140/109
f 103/129/99 104/130/100 109/143/105 115/141/110
f 104/130/100 108/134/104 110/142/106 109/143/105
f 115/144/110 109/135/105 111/137/40
f 113/145/108 112/146/107 111/137/40
f 101/147/97 114/148/109 111/137/40
f 110/136/106 102/149/98 111/137/40
f 112/146/107 115/144/110 111/137/40
f 114/148/109 113/145/108 111/137/40
f 102/149/98 101/147/97 111/137/40
f 116/150/111 49/65/49 68/107/68 117/151/112
f 45/61/45 44/60/44 65/152/65 64/104/64
f 117/153/112 68/84/68 62/78/62 118/154/113
f 118/154/113 62/78/62 65/81/65 82/155/82
f 116/150/111 119/156/114 43/59/43 49/65/49
f 119/156/114 81/99/81 44/60/44 43/59/43
f 59/75/59 61/77/61 81/99/81 119/156/114
f 60/76/60 59/75/59 119/156/114 116/150/111
f 79/95/79 118/154/113 82/155/82 80/96/80
f 78/94/78 117/153/112 118/154/113 79/95/79
f 60/76/60 116/150/111 117/151/112 78/108/78
f 44/60/44 81/99/81 82/101/82 65/152/65
