# Blender v2.79 (sub 0) OBJ File: ''
# www.blender.org
mtllib Background.mtl
o Circle_Circle.001
v -136.340744 50.420311 -0.551685
v -109.977722 50.420322 -80.585442
v -28.401424 50.420334 -20.810946
v -35.209599 50.420330 -0.142470
v 109.977722 50.420300 80.585411
v 41.606941 50.420288 129.838272
v 10.744874 50.420326 33.530361
v 28.401432 50.420326 20.810957
v -41.606918 50.420334 -129.838242
v 42.656261 50.420334 -129.497314
v 11.015859 50.420334 -33.442299
v -10.744866 50.420334 -33.530350
v -42.656296 50.420288 129.497284
v -110.626251 50.420300 79.692772
v -28.568916 50.420326 20.580431
v -11.015862 50.420326 33.442307
v 110.626266 50.420322 -79.692764
v 136.340775 50.420311 0.551720
v 35.209606 50.420330 0.142478
v 28.568913 50.420334 -20.580427
v 0.011523 0.019688 0.035953
v 0.030457 0.019688 0.022313
v 0.011814 0.019688 -0.035866
v -0.011522 0.019688 -0.035961
v -0.030636 0.019688 0.022066
v -0.011812 0.019688 0.035858
v 0.037758 0.019688 0.000149
v 0.030637 0.019688 -0.022074
v -0.030456 0.019688 -0.022321
v -0.037757 0.019688 -0.000157
v 9.701589 -60.992413 30.274673
v 25.643753 -60.992413 18.790270
v 9.946259 -60.992405 -30.195196
v -9.701584 -60.992405 -30.274696
v -25.794981 -60.992413 18.582134
v -9.946271 -60.992413 30.195169
v 31.790886 -60.992409 0.128624
v 25.794977 -60.992405 -18.582167
v -25.643757 -60.992405 -18.790300
v -31.790873 -60.992409 -0.128652
v 42.461414 -59.938728 -128.905853
v -41.416893 -59.938728 -129.245224
v -110.120949 -59.938763 79.328773
v -42.461460 -59.938774 128.905777
v 135.717972 -59.938751 0.549161
v 110.120934 -59.938740 -79.328796
v -109.475388 -59.938740 -80.217346
v -135.717957 -59.938751 -0.549166
v 41.416912 -59.938774 129.245178
v 109.475372 -59.938763 80.217285
v -136.340744 53.176147 -0.551684
v -109.977722 53.176159 -80.585442
v 109.977722 53.176136 80.585411
v 41.606941 53.176125 129.838272
v -41.606918 53.176170 -129.838242
v 42.656261 53.176170 -129.497314
v -42.656296 53.176125 129.497284
v -110.626251 53.176136 79.692772
v 110.626266 53.176159 -79.692764
v 136.340775 53.176147 0.551721
v 0.000000 53.176163 0.000005
v -110.120949 -63.352222 79.328773
v -42.461460 -63.352234 128.905777
v 135.717972 -63.352211 0.549161
v 110.120934 -63.352200 -79.328796
v -109.475388 -63.352200 -80.217346
v -135.717957 -63.352211 -0.549166
v 41.416912 -63.352234 129.245178
v 109.475372 -63.352222 80.217285
v 42.461414 -63.352188 -128.905853
v -41.416893 -63.352188 -129.245224
v -0.000005 -63.352211 -0.000014
vt 0.255614 0.430535
vt 0.221982 0.334271
vt 0.287292 0.290140
vt 0.295978 0.315000
vt 0.347492 0.277929
vt 0.347492 0.374806
vt 0.294318 0.338876
vt 0.294318 0.313858
vt 0.224497 0.252887
vt 0.253644 0.169461
vt 0.288625 0.269588
vt 0.281098 0.291133
vt 0.365858 0.434225
vt 0.310770 0.471447
vt 0.310770 0.326880
vt 0.324996 0.317267
vt 0.309369 0.096545
vt 0.359496 0.130416
vt 0.322314 0.236842
vt 0.309369 0.228095
vt 0.408425 0.779674
vt 0.396471 0.782409
vt 0.415792 0.716478
vt 0.415805 0.716475
vt 0.367945 0.609164
vt 0.355915 0.609164
vt 0.361923 0.557709
vt 0.361936 0.557709
vt 0.387482 0.409425
vt 0.377111 0.411588
vt 0.394120 0.354788
vt 0.394131 0.354785
vt 0.437436 0.790433
vt 0.425335 0.787664
vt 0.417864 0.723687
vt 0.417877 0.723690
vt 0.411663 0.099640
vt 0.422640 0.096545
vt 0.405583 0.158190
vt 0.405571 0.158194
vt 0.356499 0.483117
vt 0.367361 0.483117
vt 0.391288 0.195593
vt 0.391299 0.195595
vt 0.386488 0.275273
vt 0.377111 0.273623
vt 0.424609 0.630940
vt 0.435535 0.633440
vt 0.422640 0.239447
vt 0.412729 0.242241
vt 0.398349 0.627326
vt 0.409142 0.624857
vt 0.285154 0.609581
vt 0.274823 0.602601
vt 0.274823 0.483117
vt 0.318925 0.512917
vt 0.299759 0.676298
vt 0.310755 0.668868
vt 0.346703 0.771763
vt 0.299759 0.803484
vt 0.296704 0.628691
vt 0.288765 0.651414
vt 0.220823 0.605505
vt 0.254713 0.508500
vt 0.327169 0.640563
vt 0.327169 0.615005
vt 0.388994 0.573231
vt 0.388994 0.682338
vt 0.288294 0.672826
vt 0.296136 0.695272
vt 0.254656 0.814001
vt 0.221178 0.718177
vt 0.449457 0.564162
vt 0.452268 0.467494
vt 0.454116 0.467305
vt 0.451304 0.563973
vt 0.383670 0.658368
vt 0.383670 0.561492
vt 0.385176 0.561492
vt 0.385176 0.658368
vt 0.413750 0.221021
vt 0.418163 0.137595
vt 0.419766 0.137595
vt 0.415353 0.221021
vt 0.451914 0.787858
vt 0.454760 0.689999
vt 0.456630 0.689807
vt 0.453784 0.787666
vt 0.434110 0.383503
vt 0.429420 0.294828
vt 0.431124 0.294828
vt 0.435814 0.383503
vt 0.187591 0.118870
vt 0.221637 0.216320
vt 0.132503 0.276547
vt 0.147155 0.451245
vt 0.097028 0.417374
vt 0.147155 0.273895
vt 0.079516 0.119017
vt 0.133933 0.082247
vt 0.133933 0.274776
vt 0.204119 0.374806
vt 0.176738 0.453180
vt 0.132433 0.326367
vt 0.071884 0.356009
vt 0.071884 0.252888
vt 0.148191 0.304448
vt 0.409243 0.740043
vt 0.413635 0.656997
vt 0.415621 0.656997
vt 0.411228 0.740043
vt 0.432124 0.242468
vt 0.429291 0.339880
vt 0.426975 0.340117
vt 0.429808 0.242705
vt 0.429298 0.539514
vt 0.424629 0.451245
vt 0.426739 0.451245
vt 0.431408 0.539514
vt 0.452385 0.082247
vt 0.449587 0.178474
vt 0.447298 0.178708
vt 0.450097 0.082482
vt 0.377786 0.247634
vt 0.377786 0.344069
vt 0.375920 0.344069
vt 0.375920 0.247634
vt 0.045884 0.599731
vt 0.079362 0.503906
vt 0.133531 0.658954
vt 0.176208 0.765385
vt 0.132106 0.795184
vt 0.132106 0.639151
vt 0.227521 0.573231
vt 0.227521 0.682338
vt 0.146784 0.627784
vt 0.147842 0.471301
vt 0.194787 0.503022
vt 0.147842 0.637393
vt 0.077260 0.822415
vt 0.043370 0.725410
vt 0.132096 0.665457
vt 0.848447 0.340391
vt 0.823204 0.412645
vt 0.792907 0.325927
vt 0.799426 0.307268
vt 0.752473 0.234482
vt 0.798132 0.203630
vt 0.798132 0.323456
vt 0.786341 0.331423
vt 0.797204 0.458340
vt 0.754414 0.429426
vt 0.786154 0.338577
vt 0.797204 0.346044
vt 0.852977 0.296783
vt 0.878821 0.370758
vt 0.828633 0.404670
vt 0.821959 0.385566
vt 0.736593 0.397120
vt 0.736593 0.290413
vt 0.795161 0.329988
vt 0.795161 0.357545
vt 0.878915 0.207098
vt 0.891309 0.206449
vt 0.885761 0.259784
vt 0.885748 0.259785
vt 0.886195 0.703968
vt 0.874576 0.703968
vt 0.880379 0.654272
vt 0.880391 0.654272
vt 0.907313 0.685498
vt 0.898126 0.683396
vt 0.892455 0.634831
vt 0.892465 0.634833
vt 0.918494 0.452659
vt 0.905244 0.452394
vt 0.912124 0.395854
vt 0.912138 0.395854
vt 0.856212 0.556445
vt 0.847239 0.558497
vt 0.861742 0.509012
vt 0.861751 0.509010
vt 0.892280 0.336341
vt 0.881089 0.336927
vt 0.875140 0.582229
vt 0.885631 0.582229
vt 0.897575 0.564426
vt 0.905870 0.566323
vt 0.906530 0.313577
vt 0.918494 0.313816
vt 0.848649 0.442096
vt 0.856750 0.440243
vt 0.780112 0.598132
vt 0.780112 0.619949
vt 0.727336 0.655610
vt 0.727336 0.562472
vt 0.826010 0.701039
vt 0.819983 0.683791
vt 0.851859 0.592553
vt 0.877585 0.666190
vt 0.803092 0.720857
vt 0.814471 0.728545
vt 0.814471 0.860153
vt 0.765894 0.827330
vt 0.781454 0.550395
vt 0.771930 0.556830
vt 0.740796 0.467715
vt 0.781454 0.440243
vt 0.807766 0.717997
vt 0.814346 0.699164
vt 0.870661 0.737216
vt 0.842571 0.817618
vt 0.885621 0.674060
vt 0.881799 0.601807
vt 0.883187 0.601807
vt 0.887009 0.674060
vt 0.907484 0.384242
vt 0.907484 0.284402
vt 0.909036 0.284402
vt 0.909036 0.384242
vt 0.909051 0.797571
vt 0.906841 0.704118
vt 0.908293 0.703969
vt 0.910504 0.797422
vt 0.912968 0.638401
vt 0.916881 0.564426
vt 0.918303 0.564426
vt 0.914390 0.638401
vt 0.943108 0.709858
vt 0.940586 0.603280
vt 0.942243 0.603111
vt 0.944764 0.709688
vt 0.717654 0.536170
vt 0.675837 0.564426
vt 0.675837 0.416477
vt 0.578673 0.290413
vt 0.608833 0.204086
vt 0.657633 0.343766
vt 0.716272 0.251081
vt 0.716272 0.340391
vt 0.650185 0.295736
vt 0.604716 0.495866
vt 0.576496 0.415094
vt 0.650375 0.365174
vt 0.658732 0.155554
vt 0.701522 0.184468
vt 0.658732 0.306947
vt 0.911310 0.268527
vt 0.907415 0.342164
vt 0.905654 0.342164
vt 0.909549 0.268527
vt 0.940703 0.257405
vt 0.943212 0.363496
vt 0.941160 0.363706
vt 0.938651 0.257615
vt 0.876375 0.312055
vt 0.880179 0.383978
vt 0.878459 0.383978
vt 0.874655 0.312055
vt 0.907373 0.706504
vt 0.907373 0.607121
vt 0.909295 0.607121
vt 0.909295 0.706504
vt 0.889268 0.356142
vt 0.891469 0.449168
vt 0.889669 0.449352
vt 0.887469 0.356326
vt 0.695489 0.557429
vt 0.723579 0.637832
vt 0.650038 0.687524
vt 0.608695 0.549244
vt 0.657272 0.516421
vt 0.657272 0.688287
vt 0.649883 0.727937
vt 0.609226 0.700465
vt 0.649883 0.584090
vt 0.589496 0.655610
vt 0.589496 0.562472
vt 0.658416 0.609041
vt 0.742880 0.757210
vt 0.717154 0.830847
vt 0.675528 0.711700
vn 0.2394 -0.6437 -0.7268
vn 0.6209 -0.6437 -0.4473
vn 0.3115 -0.9234 -0.2244
vn 0.1201 -0.9234 -0.3646
vn -0.6209 -0.6437 0.4473
vn -0.7653 -0.6437 -0.0031
vn -0.3839 -0.9234 -0.0016
vn -0.3115 -0.9234 0.2244
vn 0.7653 -0.6437 0.0031
vn 0.6173 -0.6437 0.4523
vn 0.3096 -0.9234 0.2269
vn 0.3839 -0.9234 0.0016
vn -0.6173 -0.6437 -0.4523
vn -0.2335 -0.6437 -0.7288
vn -0.1171 -0.9234 -0.3656
vn -0.3096 -0.9234 -0.2269
vn 0.2335 -0.6437 0.7288
vn -0.2394 -0.6437 0.7268
vn -0.1201 -0.9234 0.3646
vn 0.1171 -0.9234 0.3656
vn 0.8093 -0.0724 -0.5830
vn 0.3120 -0.0724 -0.9473
vn -0.9974 -0.0724 -0.0040
vn -0.8093 -0.0724 0.5830
vn 0.8045 -0.0724 0.5895
vn 0.9974 -0.0724 0.0040
vn -0.3044 -0.0724 -0.9498
vn -0.8045 -0.0724 -0.5895
vn -0.3120 -0.0724 0.9473
vn 0.3044 -0.0724 0.9498
vn -0.4295 0.9030 -0.0017
vn -0.3485 0.9030 0.2511
vn 0.3465 0.9030 0.2539
vn 0.4295 0.9030 0.0017
vn -0.1311 0.9030 -0.4090
vn -0.3465 0.9030 -0.2539
vn -0.1344 0.9030 0.4080
vn 0.1311 0.9030 0.4090
vn 0.3485 0.9030 -0.2511
vn 0.1344 0.9030 -0.4080
vn -0.7625 0.6469 -0.0031
vn -0.6187 0.6469 0.4457
vn 0.6151 0.6469 0.4507
vn 0.7625 0.6469 0.0031
vn -0.2327 0.6469 -0.7262
vn -0.6151 0.6469 -0.4507
vn -0.2386 0.6469 0.7243
vn 0.2327 0.6469 0.7262
vn 0.6187 0.6469 -0.4457
vn 0.2386 0.6469 -0.7243
vn 0.2394 0.6437 -0.7268
vn 0.6209 0.6437 -0.4473
vn -0.6209 0.6437 0.4473
vn -0.7653 0.6437 -0.0031
vn 0.7653 0.6437 0.0031
vn 0.6173 0.6437 0.4523
vn -0.6173 0.6437 -0.4523
vn -0.2335 0.6437 -0.7288
vn 0.2335 0.6437 0.7288
vn -0.2394 0.6437 0.7268
vn -0.0000 1.0000 0.0000
vn 0.0000 -1.0000 -0.0000
usemtl Dark_Blue
s 1
f 10/1/1 17/2/2 20/3/3 11/4/4
f 14/5/5 1/6/6 4/7/7 15/8/8
f 18/9/9 5/10/10 8/11/11 19/12/12
f 2/13/13 9/14/14 12/15/15 3/16/16
f 6/17/17 13/18/18 16/19/19 7/20/20
f 11/21/4 20/22/3 28/23/21 23/24/22
f 15/25/8 4/26/7 30/27/23 25/28/24
f 19/29/12 8/30/11 22/31/25 27/32/26
f 3/33/16 12/34/15 24/35/27 29/36/28
f 7/37/20 16/38/19 26/39/29 21/40/30
f 25/28/24 30/27/23 40/41/31 35/42/32
f 27/43/26 22/44/25 32/45/33 37/46/34
f 29/36/28 24/35/27 34/47/35 39/48/36
f 21/40/30 26/39/29 36/49/37 31/50/38
f 23/24/22 28/23/21 38/51/39 33/52/40
f 35/53/32 40/54/31 48/55/41 43/56/42
f 37/57/34 32/58/33 50/59/43 45/60/44
f 39/61/36 34/62/35 42/63/45 47/64/46
f 31/65/38 36/66/37 44/67/47 49/68/48
f 33/69/40 38/70/39 46/71/49 41/72/50
f 17/73/2 10/74/1 56/75/51 59/76/52
f 1/77/6 14/78/5 58/79/53 51/80/54
f 5/81/10 18/82/9 60/83/55 53/84/56
f 9/85/14 2/86/13 52/87/57 55/88/58
f 13/89/18 6/90/17 54/91/59 57/92/60
f 55/93/58 52/94/57 61/95/61
f 57/96/60 54/97/59 61/98/61
f 59/99/52 56/100/51 61/101/61
f 51/102/54 58/103/53 61/104/61
f 53/105/56 60/106/55 61/107/61
f 45/108/44 50/109/43 69/110/10 64/111/9
f 47/112/46 42/113/45 71/114/14 66/115/13
f 49/116/48 44/117/47 63/118/18 68/119/17
f 41/120/50 46/121/49 65/122/2 70/123/1
f 43/124/42 48/125/41 67/126/6 62/127/5
f 70/128/1 65/129/2 72/130/62
f 62/131/5 67/132/6 72/133/62
f 68/134/17 63/135/18 72/136/62
f 64/137/9 69/138/10 72/139/62
f 66/140/13 71/141/14 72/142/62
usemtl Light_Blue
f 1/143/6 2/144/13 3/145/16 4/146/7
f 5/147/10 6/148/17 7/149/20 8/150/11
f 9/151/14 10/152/1 11/153/4 12/154/15
f 13/155/18 14/156/5 15/157/8 16/158/19
f 17/159/2 18/160/9 19/161/12 20/162/3
f 8/163/11 7/164/20 21/165/30 22/166/25
f 12/167/15 11/168/4 23/169/22 24/170/27
f 16/171/19 15/172/8 25/173/24 26/174/29
f 20/175/3 19/176/12 27/177/26 28/178/21
f 4/179/7 3/180/16 29/181/28 30/182/23
f 22/166/25 21/165/30 31/183/38 32/184/33
f 24/170/27 23/169/22 33/185/40 34/186/35
f 26/174/29 25/173/24 35/187/32 36/188/37
f 28/178/21 27/177/26 37/189/34 38/190/39
f 30/182/23 29/181/28 39/191/36 40/192/31
f 34/193/35 33/194/40 41/195/50 42/196/45
f 36/197/37 35/198/32 43/199/42 44/200/47
f 38/201/39 37/202/34 45/203/44 46/204/49
f 40/205/31 39/206/36 47/207/46 48/208/41
f 32/209/33 31/210/38 49/211/48 50/212/43
f 2/213/13 1/214/6 51/215/54 52/216/57
f 6/217/17 5/218/10 53/219/56 54/220/59
f 10/221/1 9/222/14 55/223/58 56/224/51
f 14/225/5 13/226/18 57/227/60 58/228/53
f 18/229/9 17/230/2 59/231/52 60/232/55
f 58/233/53 57/234/60 61/235/61
f 60/236/55 59/237/52 61/238/61
f 52/239/57 51/240/54 61/241/61
f 54/242/59 53/243/56 61/244/61
f 56/245/51 55/246/58 61/247/61
f 44/248/47 43/249/42 62/250/5 63/251/18
f 46/252/49 45/253/44 64/254/9 65/255/2
f 48/256/41 47/257/46 66/258/13 67/259/6
f 50/260/43 49/261/48 68/262/17 69/263/10
f 42/264/45 41/265/50 70/266/1 71/267/14
f 69/268/10 68/269/17 72/270/62
f 65/271/2 64/272/9 72/273/62
f 67/274/6 66/275/13 72/276/62
f 71/277/14 70/278/1 72/279/62
f 63/280/18 62/281/5 72/282/62
