# Blender v2.79 (sub 0) OBJ File: ''
# www.blender.org
mtllib Ax.mtl
o Cylinder
v -0.000028 17.078049 -0.555691
v -0.000039 18.318419 -0.561390
v 0.397005 18.331070 -0.396964
v 0.393001 17.093660 -0.392934
v 0.380892 14.588954 0.384935
v 0.363801 13.326818 0.379956
v 0.420320 13.422389 0.366924
v 0.435828 14.628813 0.372418
v 0.506018 13.311513 0.000001
v 0.363797 13.326780 -0.379948
v 0.420319 13.422388 -0.366915
v 0.554763 13.410739 0.000004
v 0.393001 17.093660 0.392946
v 0.397005 18.331070 0.396976
v -0.000039 18.318419 0.561403
v -0.000028 17.078049 0.555703
v -0.397021 18.316118 0.396972
v -0.392987 17.074488 0.392941
v -0.561450 18.315964 0.000006
v -0.555748 17.074146 0.000006
v -0.000039 18.494547 0.447229
v -0.316286 18.492689 0.316239
v -0.397021 18.316118 -0.396960
v -0.392987 17.074488 -0.392929
v 0.321201 -2.268781 0.321237
v -0.000301 -2.262795 0.454023
v -0.000063 -2.578685 0.392041
v 0.277209 -2.578610 0.276553
v -0.333197 2.462250 -0.333140
v -0.347760 7.424329 -0.347727
v 0.000125 7.424118 -0.491911
v 0.000187 2.461967 -0.470792
v -0.470879 2.462211 0.000245
v -0.491368 7.424324 0.000342
v -0.332848 2.462185 0.333173
v -0.347269 7.424316 0.347742
v 0.000211 2.463313 0.471031
v 0.000165 7.424279 0.491623
v 0.333343 2.463049 0.333033
v 0.346834 7.423467 0.347507
v 0.471317 2.462062 -0.000252
v 0.489721 7.422590 -0.000341
v 0.333044 2.462022 -0.333091
v 0.346320 7.423376 -0.347550
v -0.379744 13.330743 -0.379671
v -0.001885 13.329898 -0.536972
v -0.536982 13.330584 0.000008
v -0.379739 13.330696 0.379679
v -0.001885 13.329890 0.536980
v -0.000046 -2.268257 -0.454195
v 0.321143 -2.263279 -0.320836
v 0.453692 -2.257864 0.000003
v -0.321203 -2.262017 0.320770
v -0.453932 -2.261665 -0.000260
v -0.320834 -2.256490 -0.320791
v -0.316286 18.492689 -0.316227
v -0.447275 18.492537 0.000006
v -0.000037 18.494957 0.000006
v -0.000039 18.494547 -0.447217
v 0.316247 18.502621 -0.316230
v 0.561326 18.343571 0.000006
v 0.447279 18.509525 0.000006
v 0.316247 18.502621 0.316242
v 0.277202 -2.578722 -0.277257
v -0.000563 -2.578576 -0.391549
v -0.277237 -2.578110 -0.276439
v -0.277231 -2.578318 0.276453
v 0.391057 -2.577906 -0.000027
v -0.391000 -2.577956 -0.000009
v -0.000058 -2.590120 -0.000006
v 0.610675 18.270676 0.000006
v 0.452042 18.255207 -0.384118
v 0.448183 17.056744 -0.380221
v 0.452042 18.255207 0.384130
v 1.426008 18.037924 -0.327049
v 1.441499 16.841629 -0.323182
v 1.485248 18.061890 0.000006
v 4.661672 19.669918 -0.119210
v 4.651039 19.671371 0.000006
v 5.899653 21.041410 0.000007
v 5.617345 20.708290 -0.033660
v 2.708028 12.140638 0.133338
v 2.710304 12.134905 0.000001
v 3.411817 11.110713 0.000004
v 3.144691 11.463773 0.060700
v 1.203815 13.264617 0.300691
v 1.339259 14.386266 0.316687
v 1.426008 18.037924 0.327061
v 1.189370 13.222713 0.000001
v 1.203816 13.264619 -0.300682
v 6.285816 18.626455 0.000006
v 5.617345 20.708290 0.033673
v 6.032718 18.607407 0.040438
v 6.032718 18.607407 -0.040426
v 4.940948 18.343851 -0.123623
v 3.735453 13.209467 0.130154
v 4.510013 13.016191 0.053791
v 2.708036 12.140623 -0.133329
v 3.144692 11.463775 -0.060692
v 4.661672 19.669918 0.119223
v 2.610581 18.340229 0.000006
v 2.579704 18.344563 0.272955
v 3.755359 18.935293 0.218204
v 3.743694 18.924318 0.000006
v 1.799628 12.952173 0.000004
v 1.797414 12.942317 -0.243736
v 2.207804 12.625466 -0.207896
v 2.197809 12.618812 0.000008
v 2.089580 14.040588 0.263622
v 1.797414 12.942320 0.243745
v 2.207805 12.625461 0.207905
v 2.702529 13.678476 0.210286
v 2.514230 17.244732 -0.269501
v 2.579704 18.344563 -0.272943
v 3.755359 18.935293 -0.218192
v 3.556912 17.604891 -0.215358
v 2.241053 14.822211 -0.264967
v 2.408202 15.665309 -0.266320
v 3.319590 15.712676 -0.212714
v 3.015920 14.636023 -0.211494
v 2.514230 17.244732 0.269513
v 2.408202 15.665309 0.266331
v 3.319590 15.712676 0.212725
v 3.556912 17.604891 0.215370
v 4.940948 18.343851 0.123635
v 4.957451 16.335947 0.126861
v 5.928351 16.653116 0.047127
v 4.447292 14.483658 -0.128368
v 4.957451 16.335947 -0.126849
v 5.928351 16.653116 -0.047115
v 5.349692 14.410540 -0.050443
v 6.184034 16.622822 0.000006
v 5.621166 14.394304 0.000005
v 5.349692 14.410540 0.050452
v 0.448183 17.056744 0.380232
v 0.442997 15.837205 0.376328
v 1.418536 15.598538 0.319890
v 1.441499 16.841629 0.323193
v 0.439228 15.232364 -0.374364
v 0.442997 15.837205 -0.376317
v 1.418536 15.598538 -0.319878
v 1.377000 14.984725 -0.318279
v 0.384266 15.212121 -0.386913
v 0.387964 15.836179 -0.388899
v -0.386900 15.211062 -0.386840
v -0.388958 15.832049 -0.388897
v -0.000072 15.832610 -0.549987
v -0.000172 15.211337 -0.547078
v -0.547136 15.211051 0.000005
v -0.550047 15.832028 0.000006
v -0.386900 15.211062 0.386849
v -0.388958 15.832049 0.388909
v -0.000172 15.211339 0.547089
v -0.000072 15.832610 0.549998
v 0.384266 15.212121 0.386922
v 0.387964 15.836179 0.388911
v -0.000254 14.590063 -0.544170
v 0.380892 14.588951 -0.384926
v -0.000254 14.590065 0.544179
v -0.384842 14.590074 0.384791
v -0.544224 14.590074 0.000005
v -0.384842 14.590074 -0.384782
v 0.435828 14.628813 -0.372409
v 1.339259 14.386268 -0.316678
v 4.828789 12.973335 0.000004
v 4.510013 13.016191 -0.053783
v 3.735453 13.209467 -0.130145
v 2.089580 14.040589 -0.263613
v 2.702529 13.678476 -0.210277
v 2.241052 14.822211 0.264977
v 3.015920 14.636023 0.211504
v 4.447292 14.483658 0.128377
v 0.439228 15.232364 0.374373
v 1.377000 14.984723 0.318288
v 4.743730 16.130428 -0.142896
v 4.786325 18.273531 -0.140401
v 4.517467 19.537914 0.136801
v 4.786325 18.273531 0.140414
v 4.265137 14.512350 0.144146
v 3.608807 13.267585 0.145557
v 2.630556 12.208191 -0.148734
v 3.608808 13.267587 -0.145547
v 4.265137 14.512352 -0.144137
v 4.743730 16.130428 0.142908
v 4.506582 19.542044 0.000006
v 2.631170 12.201303 0.000006
v 2.630547 12.208201 0.148742
v 4.517467 19.537914 -0.136788
vt 0.897764 0.628730
vt 0.901853 0.693280
vt 0.882327 0.699879
vt 0.871953 0.630919
vt 0.767315 0.476696
vt 0.768478 0.397460
vt 0.771932 0.403872
vt 0.770789 0.479253
vt 0.836542 0.394760
vt 0.862294 0.398386
vt 0.858980 0.404885
vt 0.834712 0.401456
vt 0.764072 0.629834
vt 0.755268 0.698917
vt 0.735625 0.692768
vt 0.738253 0.628231
vt 0.715862 0.693724
vt 0.712703 0.627944
vt 0.692373 0.703037
vt 0.687193 0.628492
vt 0.734749 0.702236
vt 0.719015 0.703728
vt 0.948887 0.627838
vt 0.945385 0.702584
vt 0.921659 0.693791
vt 0.923336 0.627866
vt 0.759085 0.073927
vt 0.739022 0.077413
vt 0.739050 0.061212
vt 0.752724 0.057196
vt 0.928348 0.192148
vt 0.920025 0.287241
vt 0.896440 0.287083
vt 0.905842 0.192021
vt 0.950880 0.192157
vt 0.943587 0.287246
vt 0.715242 0.193445
vt 0.717116 0.287966
vt 0.693618 0.288498
vt 0.692937 0.193976
vt 0.737738 0.192873
vt 0.740625 0.287282
vt 0.760241 0.192117
vt 0.763679 0.286446
vt 0.782575 0.191205
vt 0.787160 0.285480
vt 0.883364 0.191800
vt 0.873362 0.286771
vt 0.849859 0.286340
vt 0.861071 0.191471
vt 0.913370 0.397460
vt 0.887613 0.398018
vt 0.939064 0.396813
vt 0.717463 0.397682
vt 0.691796 0.397617
vt 0.743191 0.397661
vt 0.794107 0.393256
vt 0.917950 0.077113
vt 0.898272 0.074891
vt 0.877060 0.068464
vt 0.780724 0.067017
vt 0.719322 0.075693
vt 0.697771 0.069862
vt 0.959443 0.067700
vt 0.937519 0.075579
vt 0.918729 0.703877
vt 0.936750 0.714597
vt 0.907285 0.728314
vt 0.902944 0.702738
vt 0.888218 0.708922
vt 0.773532 0.716177
vt 0.761875 0.723415
vt 0.749590 0.708077
vt 0.701265 0.714836
vt 0.864433 0.717572
vt 0.876267 0.724554
vt 0.904273 0.058628
vt 0.918131 0.061129
vt 0.730991 0.727867
vt 0.932260 0.058671
vt 0.724669 0.059050
vt 0.888237 0.046974
vt 0.946885 0.047010
vt 0.918100 0.036871
vt 0.768773 0.044898
vt 0.707860 0.048022
vt 0.859716 0.714266
vt 0.878385 0.696459
vt 0.737582 0.035804
vt 0.796085 0.399901
vt 0.868396 0.628972
vt 0.759126 0.695413
vt 0.778167 0.712770
vt 0.327833 0.319585
vt 0.332705 0.329195
vt 0.325719 0.346284
vt 0.303939 0.325869
vt 0.334491 0.330349
vt 0.334565 0.348791
vt 0.027923 0.826466
vt 0.026758 0.799305
vt 0.179101 0.799294
vt 0.163402 0.803857
vt 0.714969 0.781808
vt 0.714772 0.799259
vt 0.636090 0.799263
vt 0.649433 0.793731
vt 0.341083 0.264617
vt 0.337422 0.242625
vt 0.341193 0.223286
vt 0.365910 0.251123
vt 0.336274 0.329319
vt 0.343321 0.345883
vt 0.331734 0.240395
vt 0.331078 0.222096
vt 0.326280 0.243464
vt 0.321003 0.223955
vt 0.241527 0.799290
vt 0.163401 0.794732
vt 0.243033 0.787157
vt 0.243035 0.811422
vt 0.251565 0.876726
vt 0.569864 0.730889
vt 0.546725 0.784309
vt 0.714969 0.816709
vt 0.649433 0.804794
vt 0.027920 0.772144
vt 0.335596 0.400520
vt 0.350641 0.397604
vt 0.357452 0.512142
vt 0.337735 0.511512
vt 0.330252 0.189292
vt 0.317133 0.190312
vt 0.313063 0.137419
vt 0.329149 0.136809
vt 0.390142 0.224985
vt 0.343397 0.189633
vt 0.345235 0.136713
vt 0.423975 0.183808
vt 0.273362 0.362746
vt 0.320412 0.398483
vt 0.318042 0.512888
vt 0.225894 0.424476
vt 0.259768 0.262925
vt 0.247458 0.297942
vt 0.181058 0.311457
vt 0.208681 0.249746
vt 0.395920 0.359401
vt 0.418151 0.293440
vt 0.485188 0.303983
vt 0.446093 0.419241
vt 0.251546 0.721841
vt 0.386315 0.727538
vt 0.366408 0.783620
vt 0.478097 0.869331
vt 0.386323 0.871017
vt 0.366410 0.814938
vt 0.456568 0.814583
vt 0.362748 0.799280
vt 0.451746 0.799274
vt 0.456567 0.783965
vt 0.339786 0.318317
vt 0.341876 0.294295
vt 0.371573 0.289266
vt 0.363863 0.323696
vt 0.323312 0.279643
vt 0.323636 0.294506
vt 0.293847 0.291351
vt 0.295776 0.272129
vt 0.866680 0.516190
vt 0.868112 0.554696
vt 0.864625 0.554899
vt 0.863227 0.517610
vt 0.918362 0.513994
vt 0.920064 0.552311
vt 0.894113 0.553413
vt 0.892504 0.515071
vt 0.944200 0.512900
vt 0.945998 0.551243
vt 0.715104 0.514144
vt 0.714268 0.552438
vt 0.688352 0.551956
vt 0.689283 0.513633
vt 0.740945 0.514637
vt 0.740202 0.552953
vt 0.766752 0.515172
vt 0.766190 0.553649
vt 0.769675 0.553772
vt 0.767579 0.627810
vt 0.890895 0.476729
vt 0.865248 0.477684
vt 0.741688 0.476320
vt 0.715939 0.475850
vt 0.690215 0.475311
vt 0.942401 0.474557
vt 0.916661 0.475677
vt 0.861828 0.480322
vt 0.322988 0.264780
vt 0.297704 0.252906
vt 0.540745 0.799269
vt 0.546727 0.814228
vt 0.569872 0.867645
vt 0.272077 0.227907
vt 0.236305 0.188035
vt 0.404147 0.259213
vt 0.454581 0.243895
vt 0.478089 0.729214
vt 0.341479 0.279456
vt 0.368741 0.270195
vt 0.770232 0.516513
vt 0.347991 0.936046
vt 0.189369 0.935835
vt 0.183965 0.922089
vt 0.343161 0.922089
vt 0.054979 0.955517
vt 0.189170 0.958855
vt 0.183680 0.972530
vt 0.037721 0.962201
vt 0.458554 0.961206
vt 0.569341 0.962478
vt 0.566125 0.973164
vt 0.454469 0.973506
vt 0.681878 0.940740
vt 0.569580 0.935641
vt 0.566501 0.924873
vt 0.694860 0.932508
vt 0.458785 0.935843
vt 0.454831 0.923481
vt 0.347766 0.959935
vt 0.342812 0.973847
vt 0.053052 0.946936
vt 0.035562 0.946911
vt 0.682830 0.950009
vt 0.697962 0.950376
vt 0.681324 0.959265
vt 0.693855 0.967816
vt 0.054914 0.938228
vt 0.037643 0.931489
vt 0.340608 0.669061
vt 0.327590 0.668746
vt 0.327322 0.036508
vt 0.340871 0.037821
vt 0.147408 0.551250
vt 0.510620 0.095777
vt 0.313692 0.037432
vt 0.353675 0.669061
vt 0.621548 0.348491
vt 0.530353 0.543543
vt 0.047344 0.361575
vt 0.096427 0.232313
vt 0.145510 0.103051
vt 0.566084 0.222134
vn 0.0001 -0.0046 -1.0000
vn -0.0036 0.2630 -0.9648
vn 0.5749 0.3728 -0.7283
vn 0.3036 -0.0041 -0.9528
vn 0.3094 -0.0062 0.9509
vn 0.6572 -0.1015 0.7469
vn 0.3528 -0.3427 0.8707
vn 0.1454 -0.0070 0.9894
vn 0.9695 -0.2449 -0.0002
vn 0.6572 -0.1015 -0.7469
vn 0.3528 -0.3427 -0.8707
vn 0.2939 -0.9558 0.0000
vn 0.3036 -0.0041 0.9528
vn 0.5749 0.3728 0.7283
vn -0.0036 0.2630 0.9648
vn 0.0001 -0.0046 1.0000
vn -0.6826 0.2633 0.6817
vn -0.7071 -0.0046 0.7071
vn -0.9646 0.2637 -0.0000
vn -1.0000 -0.0046 0.0000
vn -0.0116 0.8284 0.5600
vn -0.3986 0.8274 0.3956
vn -0.6826 0.2633 -0.6817
vn -0.7071 -0.0046 -0.7071
vn 0.7042 -0.0992 0.7030
vn -0.0011 -0.0968 0.9953
vn -0.0013 -0.6937 0.7203
vn 0.5103 -0.6946 0.5071
vn -0.7073 -0.0039 -0.7069
vn -0.7075 -0.0059 -0.7066
vn 0.0021 -0.0058 -1.0000
vn 0.0004 -0.0039 -1.0000
vn -1.0000 -0.0039 0.0004
vn -1.0000 -0.0059 0.0006
vn -0.7071 -0.0039 0.7071
vn -0.7071 -0.0059 0.7071
vn 0.0000 -0.0039 1.0000
vn 0.0018 -0.0058 1.0000
vn 0.7076 -0.0038 0.7066
vn 0.7123 -0.0047 0.7018
vn 1.0000 -0.0037 -0.0006
vn 1.0000 -0.0039 -0.0006
vn 0.7073 -0.0038 -0.7069
vn 0.7120 -0.0048 -0.7021
vn -0.7076 -0.0066 -0.7066
vn 0.0032 -0.0071 -1.0000
vn -1.0000 -0.0067 0.0002
vn -0.7074 -0.0067 0.7068
vn 0.0031 -0.0071 1.0000
vn -0.0008 -0.0988 -0.9951
vn 0.7046 -0.0971 -0.7029
vn 0.9954 -0.0954 -0.0006
vn -0.7044 -0.0969 0.7032
vn -0.9953 -0.0970 -0.0007
vn -0.7045 -0.0951 -0.7033
vn -0.3986 0.8274 -0.3956
vn -0.5614 0.8275 -0.0000
vn -0.0173 0.9998 0.0000
vn -0.0116 0.8284 -0.5600
vn 0.3740 0.8367 -0.4001
vn 0.8303 0.5573 -0.0000
vn 0.5354 0.8446 0.0000
vn 0.3740 0.8367 0.4001
vn 0.5108 -0.6936 -0.5080
vn -0.0023 -0.6943 -0.7197
vn -0.5117 -0.6926 -0.5084
vn -0.5109 -0.6934 0.5081
vn 0.7211 -0.6928 -0.0005
vn -0.7207 -0.6932 -0.0009
vn -0.0004 -1.0000 -0.0001
vn 0.5065 0.8623 -0.0000
vn 0.4271 0.3731 -0.8236
vn 0.1401 -0.0036 -0.9901
vn 0.4271 0.3731 0.8236
vn 0.0546 0.6166 -0.7854
vn 0.0543 -0.0039 -0.9985
vn -0.0384 0.9993 0.0000
vn -0.4132 0.4887 -0.7685
vn -0.7010 0.7132 -0.0000
vn 0.4981 0.8671 0.0000
vn -0.4054 0.4563 -0.7921
vn -0.4507 -0.5278 0.7200
vn -0.7506 -0.6608 0.0000
vn 0.2054 -0.9787 0.0000
vn -0.5603 -0.4913 0.6669
vn -0.1678 -0.6301 0.7582
vn 0.0645 -0.0139 0.9978
vn 0.0546 0.6166 0.7854
vn -0.3395 -0.9406 -0.0000
vn -0.1678 -0.6301 -0.7582
vn 0.9984 0.0564 0.0000
vn -0.4054 0.4563 0.7921
vn 0.1130 0.0090 0.9936
vn 0.1130 0.0090 -0.9936
vn 0.0841 0.0115 -0.9964
vn 0.0845 -0.0608 0.9946
vn 0.1117 -0.0771 0.9908
vn -0.4507 -0.5278 -0.7199
vn -0.5603 -0.4913 -0.6669
vn -0.4132 0.4887 0.7685
vn -0.3602 0.9329 -0.0000
vn -0.2027 0.6527 0.7300
vn -0.3246 0.5836 0.7443
vn -0.5381 0.8429 -0.0000
vn -0.5355 -0.8445 -0.0000
vn -0.3152 -0.5981 -0.7368
vn -0.4057 -0.5430 -0.7352
vn -0.6619 -0.7496 -0.0000
vn 0.0661 -0.0234 0.9975
vn -0.3152 -0.5981 0.7368
vn -0.4057 -0.5430 0.7352
vn 0.0631 -0.0311 0.9975
vn 0.0530 -0.0060 -0.9986
vn -0.2027 0.6527 -0.7300
vn -0.3246 0.5836 -0.7443
vn 0.0581 -0.0050 -0.9983
vn 0.0625 -0.0143 -0.9979
vn 0.0573 -0.0099 -0.9983
vn 0.0563 -0.0112 -0.9983
vn 0.0597 -0.0193 -0.9980
vn 0.0530 -0.0060 0.9986
vn 0.0573 -0.0099 0.9983
vn 0.0563 -0.0112 0.9983
vn 0.0581 -0.0050 0.9983
vn 0.0841 0.0115 0.9964
vn 0.0860 -0.0092 0.9963
vn 0.1306 -0.0173 0.9913
vn 0.0872 -0.0355 -0.9956
vn 0.0860 -0.0092 -0.9963
vn 0.1306 -0.0173 -0.9913
vn 0.1317 -0.0549 -0.9898
vn 0.9893 -0.1456 0.0000
vn 0.9376 -0.3477 0.0000
vn 0.1317 -0.0549 0.9898
vn 0.1401 -0.0036 0.9901
vn 0.1405 -0.0042 0.9901
vn 0.0561 -0.0060 0.9984
vn 0.0543 -0.0039 0.9985
vn 0.1416 -0.0047 -0.9899
vn 0.1404 -0.0042 -0.9901
vn 0.0561 -0.0060 -0.9984
vn 0.0590 -0.0077 -0.9982
vn 0.3055 -0.0046 -0.9522
vn 0.3043 -0.0044 -0.9526
vn -0.7071 -0.0047 -0.7071
vn 0.0005 -0.0048 -1.0000
vn 0.0009 -0.0049 -1.0000
vn -1.0000 -0.0047 0.0000
vn -0.7071 -0.0047 0.7071
vn 0.0009 -0.0049 1.0000
vn 0.0005 -0.0048 1.0000
vn 0.3055 -0.0046 0.9522
vn 0.3043 -0.0044 0.9526
vn 0.0025 -0.0058 -1.0000
vn 0.3094 -0.0062 -0.9509
vn 0.0025 -0.0058 1.0000
vn -0.7073 -0.0051 0.7069
vn -1.0000 -0.0052 0.0000
vn -0.7073 -0.0051 -0.7069
vn 0.1454 -0.0070 -0.9894
vn 0.0645 -0.0139 -0.9978
vn 0.8426 -0.5386 0.0000
vn 0.1117 -0.0771 -0.9908
vn 0.0845 -0.0608 -0.9946
vn 0.0661 -0.0234 -0.9975
vn 0.0631 -0.0311 -0.9975
vn 0.0625 -0.0143 0.9979
vn 0.0597 -0.0193 0.9980
vn 0.0872 -0.0355 0.9956
vn 0.1416 -0.0047 0.9899
vn 0.0590 -0.0077 0.9982
vn 0.0743 -0.0140 -0.9971
vn 0.0816 0.0055 -0.9967
vn -0.3847 0.5433 0.7462
vn 0.0816 0.0055 0.9967
vn 0.0726 -0.0286 0.9970
vn 0.0771 -0.0526 0.9956
vn -0.4149 -0.5602 -0.7170
vn 0.0771 -0.0526 -0.9956
vn 0.0726 -0.0286 -0.9970
vn 0.0743 -0.0140 0.9971
vn -0.6460 0.7633 -0.0000
vn -0.6723 -0.7403 0.0000
vn -0.4149 -0.5602 0.7170
vn -0.3848 0.5433 -0.7462
usemtl Material.001
s 1
f 1/1/1 2/2/2 3/3/3 4/4/4
f 5/5/5 6/6/6 7/7/7 8/8/8
f 9/9/9 10/10/10 11/11/11 12/12/12
f 13/13/13 14/14/14 15/15/15 16/16/16
f 16/16/16 15/15/15 17/17/17 18/18/18
f 18/18/18 17/17/17 19/19/19 20/20/20
f 17/17/17 15/15/15 21/21/21 22/22/22
f 20/23/20 19/24/19 23/25/23 24/26/24
f 24/26/24 23/25/23 2/2/2 1/1/1
f 25/27/25 26/28/26 27/29/27 28/30/28
f 29/31/29 30/32/30 31/33/31 32/34/32
f 33/35/33 34/36/34 30/32/30 29/31/29
f 35/37/35 36/38/36 34/39/34 33/40/33
f 37/41/37 38/42/38 36/38/36 35/37/35
f 39/43/39 40/44/40 38/42/38 37/41/37
f 41/45/41 42/46/42 40/44/40 39/43/39
f 43/47/43 44/48/44 42/49/42 41/50/41
f 32/34/32 31/33/31 44/48/44 43/47/43
f 30/32/30 45/51/45 46/52/46 31/33/31
f 34/36/34 47/53/47 45/51/45 30/32/30
f 36/38/36 48/54/48 47/55/47 34/39/34
f 38/42/38 49/56/49 48/54/48 36/38/36
f 40/44/40 6/6/6 49/56/49 38/42/38
f 42/46/42 9/57/9 6/6/6 40/44/40
f 44/48/44 10/10/10 9/9/9 42/49/42
f 31/33/31 46/52/46 10/10/10 44/48/44
f 50/58/50 32/34/32 43/47/43 51/59/51
f 51/59/51 43/47/43 41/50/41 52/60/52
f 52/61/52 41/45/41 39/43/39 25/27/25
f 25/27/25 39/43/39 37/41/37 26/28/26
f 26/28/26 37/41/37 35/37/35 53/62/53
f 53/62/53 35/37/35 33/40/33 54/63/54
f 54/64/54 33/35/33 29/31/29 55/65/55
f 55/65/55 29/31/29 32/34/32 50/58/50
f 56/66/56 57/67/57 58/68/58
f 2/2/2 23/25/23 56/66/56 59/69/59
f 3/3/3 2/2/2 59/69/59 60/70/60
f 14/14/14 61/71/61 62/72/62 63/73/63
f 19/19/19 17/17/17 22/22/22 57/74/57
f 15/15/15 14/14/14 63/73/63 21/21/21
f 23/25/23 19/24/19 57/67/57 56/66/56
f 61/75/61 3/3/3 60/70/60 62/76/62
f 50/58/50 51/59/51 64/77/64 65/78/65
f 22/22/22 21/21/21 58/79/58
f 63/73/63 62/72/62 58/79/58
f 60/70/60 59/69/59 58/68/58
f 59/69/59 56/66/56 58/68/58
f 57/74/57 22/22/22 58/79/58
f 21/21/21 63/73/63 58/79/58
f 62/76/62 60/70/60 58/68/58
f 55/65/55 50/58/50 65/78/65 66/80/66
f 26/28/26 53/62/53 67/81/67 27/29/27
f 51/59/51 52/60/52 68/82/68 64/77/64
f 54/64/54 55/65/55 66/80/66 69/83/69
f 66/80/66 65/78/65 70/84/70
f 52/61/52 25/27/25 28/30/28 68/85/68
f 53/62/53 54/63/54 69/86/69 67/81/67
f 3/3/3 61/75/61 71/87/71 72/88/72
f 64/77/64 68/82/68 70/84/70
f 28/30/28 27/29/27 70/89/70
f 67/81/67 69/86/69 70/89/70
f 69/83/69 66/80/66 70/84/70
f 65/78/65 64/77/64 70/84/70
f 68/85/68 28/30/28 70/89/70
f 27/29/27 67/81/67 70/89/70
f 6/6/6 9/57/9 12/90/12 7/7/7
f 4/4/4 3/3/3 72/88/72 73/91/73
f 61/71/61 14/14/14 74/92/74 71/93/71
f 73/94/73 72/95/72 75/96/75 76/97/76
f 72/95/72 71/98/71 77/99/77 75/96/75
f 78/100/78 79/101/79 80/102/80 81/103/81
f 82/104/82 83/105/83 84/106/84 85/107/85
f 8/108/8 7/109/7 86/110/86 87/111/87
f 71/98/71 74/112/74 88/113/88 77/99/77
f 7/109/7 12/114/12 89/115/89 86/110/86
f 12/114/12 11/116/11 90/117/90 89/115/89
f 91/118/91 80/102/80 92/119/92 93/120/93
f 94/121/94 81/103/81 80/102/80 91/118/91
f 95/122/95 78/100/78 81/103/81 94/121/94
f 96/123/96 82/104/82 85/107/85 97/124/97
f 83/105/83 98/125/98 99/126/99 84/106/84
f 79/101/79 100/127/100 92/119/92 80/102/80
f 101/128/101 102/129/102 103/130/103 104/131/104
f 105/132/105 106/133/106 107/134/107 108/135/108
f 109/136/109 110/137/110 111/138/111 112/139/112
f 113/140/113 114/141/114 115/142/115 116/143/116
f 110/137/110 105/132/105 108/135/108 111/138/111
f 114/141/114 101/128/101 104/131/104 115/142/115
f 117/144/117 118/145/118 119/146/119 120/147/120
f 121/148/121 122/149/122 123/150/123 124/151/124
f 125/152/125 126/153/126 127/154/127 93/120/93
f 128/155/128 129/156/129 130/157/130 131/158/131
f 131/158/131 130/157/130 132/159/132 133/160/133
f 133/160/133 132/159/132 127/154/127 134/161/134
f 135/162/135 136/163/136 137/164/137 138/165/138
f 139/166/139 140/167/140 141/168/141 142/169/142
f 143/170/143 144/171/144 140/172/140 139/173/139
f 145/174/145 146/175/24 147/176/146 148/177/147
f 149/178/148 150/179/20 146/175/24 145/174/145
f 151/180/149 152/181/18 150/182/20 149/183/148
f 153/184/150 154/185/151 152/181/18 151/180/149
f 155/186/152 156/187/153 154/185/151 153/184/150
f 13/13/13 156/187/153 136/188/136 135/189/135
f 148/177/147 147/176/146 144/171/144 143/170/143
f 46/52/46 157/190/154 158/191/155 10/10/10
f 6/6/6 5/5/5 159/192/156 49/56/49
f 49/56/49 159/192/156 160/193/157 48/54/48
f 48/54/48 160/193/157 161/194/158 47/55/47
f 47/53/47 161/195/158 162/196/159 45/51/45
f 45/51/45 162/196/159 157/190/154 46/52/46
f 10/10/10 158/191/155 163/197/160 11/11/11
f 11/116/11 163/198/160 164/199/161 90/117/90
f 84/106/84 165/200/162 97/124/97 85/107/85
f 99/126/99 166/201/163 165/200/162 84/106/84
f 98/125/98 167/202/164 166/201/163 99/126/99
f 106/133/106 168/203/165 169/204/166 107/134/107
f 170/205/167 109/136/109 112/139/112 171/206/168
f 172/207/169 96/123/96 97/124/97 134/161/134
f 173/208/170 8/108/8 87/111/87 174/209/171
f 155/186/152 5/5/5 8/8/8 173/210/170
f 14/14/14 13/13/13 135/189/135 74/92/74
f 74/112/74 135/162/135 138/165/138 88/113/88
f 100/127/100 125/152/125 93/120/93 92/119/92
f 102/129/102 121/148/121 124/151/124 103/130/103
f 118/145/118 113/140/113 116/143/116 119/146/119
f 129/156/129 95/122/95 94/121/94 130/157/130
f 130/157/130 94/121/94 91/118/91 132/159/132
f 132/159/132 91/118/91 93/120/93 127/154/127
f 140/167/140 73/94/73 76/97/76 141/168/141
f 144/171/144 4/4/4 73/91/73 140/172/140
f 146/175/24 24/26/24 1/1/1 147/176/146
f 150/179/20 20/23/20 24/26/24 146/175/24
f 152/181/18 18/18/18 20/20/20 150/182/20
f 154/185/151 16/16/16 18/18/18 152/181/18
f 156/187/153 13/13/13 16/16/16 154/185/151
f 147/176/146 1/1/1 4/4/4 144/171/144
f 175/211/172 176/212/173 95/213/95 129/214/129
f 177/215/174 178/216/175 125/217/125 100/218/100
f 179/219/176 180/220/177 96/221/96 172/222/169
f 181/223/178 182/224/179 167/225/164 98/226/98
f 183/227/180 175/211/172 129/214/129 128/228/128
f 178/216/175 184/229/181 126/230/126 125/217/125
f 185/231/182 177/215/174 100/218/100 79/232/79
f 186/233/183 181/223/178 98/226/98 83/234/83
f 180/220/177 187/235/184 82/236/82 96/221/96
f 176/212/173 188/237/185 78/238/78 95/213/95
f 187/235/184 186/233/183 83/234/83 82/236/82
f 188/237/185 185/231/182 79/232/79 78/238/78
f 115/142/115 104/131/104 185/239/182 188/240/185
f 111/138/111 108/135/108 186/241/183 187/242/184
f 116/143/116 115/142/115 188/240/185 176/243/173
f 112/139/112 111/138/111 187/242/184 180/244/177
f 108/135/108 107/134/107 181/245/178 186/241/183
f 104/131/104 103/130/103 177/246/174 185/239/182
f 124/151/124 123/150/123 184/247/181 178/248/175
f 120/147/120 119/146/119 175/249/172 183/250/180
f 107/134/107 169/204/166 182/251/179 181/245/178
f 171/206/168 112/139/112 180/244/177 179/252/176
f 103/130/103 124/151/124 178/248/175 177/246/174
f 119/146/119 116/143/116 176/243/173 175/249/172
f 141/168/141 76/97/76 113/140/113 118/145/118
f 88/113/88 138/165/138 121/148/121 102/129/102
f 174/209/171 87/111/87 109/136/109 170/205/167
f 90/117/90 164/199/161 168/203/165 106/133/106
f 138/165/138 137/164/137 122/149/122 121/148/121
f 142/169/142 141/168/141 118/145/118 117/144/117
f 75/96/75 77/99/77 101/128/101 114/141/114
f 86/110/86 89/115/89 105/132/105 110/137/110
f 76/97/76 75/96/75 114/141/114 113/140/113
f 87/111/87 86/110/86 110/137/110 109/136/109
f 89/115/89 90/117/90 106/133/106 105/132/105
f 77/99/77 88/113/88 102/129/102 101/128/101
f 164/199/161 142/169/142 117/144/117 168/203/165
f 137/164/137 174/209/171 170/205/167 122/149/122
f 123/150/123 171/206/168 179/252/176 184/247/181
f 169/204/166 120/147/120 183/250/180 182/251/179
f 182/224/179 183/227/180 128/228/128 167/225/164
f 184/229/181 179/219/176 172/222/169 126/230/126
f 156/187/153 155/186/152 173/210/170 136/188/136
f 136/163/136 173/208/170 174/209/171 137/164/137
f 126/153/126 172/207/169 134/161/134 127/154/127
f 122/149/122 170/205/167 171/206/168 123/150/123
f 157/190/154 148/177/147 143/170/143 158/191/155
f 5/5/5 155/186/152 153/184/150 159/192/156
f 159/192/156 153/184/150 151/180/149 160/193/157
f 160/193/157 151/180/149 149/183/148 161/194/158
f 161/195/158 149/178/148 145/174/145 162/196/159
f 162/196/159 145/174/145 148/177/147 157/190/154
f 158/191/155 143/170/143 139/173/139 163/197/160
f 163/198/160 139/166/139 142/169/142 164/199/161
f 165/200/162 133/160/133 134/161/134 97/124/97
f 166/201/163 131/158/131 133/160/133 165/200/162
f 167/202/164 128/155/128 131/158/131 166/201/163
f 168/203/165 117/144/117 120/147/120 169/204/166
