# Blender v2.79 (sub 0) OBJ File: ''
# www.blender.org
mtllib Chalk.mtl
o Cylinder_Cylinder.001
v 0.000000 0.233330 -0.266631
v -0.000012 0.746515 -0.301018
v 0.170657 0.656923 -0.205019
v 0.170697 0.233330 -0.204502
v 0.292398 0.478890 -0.051359
v 0.261523 0.233330 -0.047187
v 0.259414 0.478289 0.150187
v 0.229979 0.233330 0.131704
v 0.071321 0.646893 0.247941
v 0.090826 0.233330 0.248468
v -0.104083 0.746783 0.283069
v -0.090826 0.233330 0.248468
v -0.260825 0.746922 0.150587
v -0.229979 0.233330 0.131704
v -0.296599 0.746922 -0.052298
v -0.261523 0.233330 -0.047187
v -0.296599 -0.724769 -0.052298
v -0.193591 -0.724769 -0.230713
v -0.179266 -0.747266 -0.214313
v -0.274652 -0.747266 -0.049101
v -0.193591 0.746922 -0.230713
v -0.170697 0.233330 -0.204502
v 0.296599 -0.724769 -0.052298
v 0.260825 -0.724769 0.150587
v 0.241525 -0.747266 0.138773
v 0.274652 -0.747266 -0.049101
v -0.168383 -0.245720 -0.201853
v 0.000000 -0.245720 -0.263139
v -0.257977 -0.245720 -0.046671
v -0.226861 -0.245720 0.129796
v -0.089595 -0.245720 0.244976
v 0.089595 -0.245720 0.244976
v 0.226861 -0.245720 0.129796
v 0.257977 -0.245720 -0.046671
v 0.168383 -0.245720 -0.201853
v 0.058852 0.752232 0.096975
v 0.077182 0.748581 -0.035958
v -0.045174 0.763650 0.001172
v -0.241525 -0.747266 0.138773
v 0.000000 -0.747266 -0.000672
v 0.000000 -0.724769 -0.301174
v 0.193591 -0.724769 -0.230713
v 0.179266 -0.747266 -0.214313
v 0.000000 -0.747266 -0.279561
v 0.104807 0.754452 -0.174739
v 0.149744 0.722642 -0.143265
v 0.184735 0.671307 -0.151501
v -0.274652 0.769419 -0.049101
v -0.179266 0.769419 -0.214313
v -0.000107 0.769361 -0.278884
v -0.103008 -0.724769 0.283011
v -0.260825 -0.724769 0.150587
v -0.095386 -0.747266 0.261398
v -0.097930 0.769090 0.261535
v -0.241525 0.769419 0.138773
v 0.103008 -0.724769 0.283011
v 0.095386 -0.747266 0.261398
v 0.012670 0.755697 0.209173
v 0.100449 0.648626 0.193594
v 0.064808 0.717576 0.185454
v 0.244946 0.556682 -0.043224
v 0.210253 0.554474 0.107521
v 0.139914 0.686950 -0.034497
v 0.110251 0.685733 0.094558
vt 0.691940 0.305962
vt 0.820058 0.439188
vt 0.763290 0.461742
vt 0.648786 0.374198
vt 0.688088 0.478762
vt 0.615069 0.440791
vt 0.665484 0.532114
vt 0.586747 0.505193
vt 0.706531 0.601107
vt 0.563172 0.576467
vt 0.729578 0.655369
vt 0.545281 0.654556
vt 0.756980 0.719596
vt 0.531288 0.745211
vt 0.836608 0.811398
vt 0.517852 0.852470
vt 0.195688 0.022055
vt 0.266724 0.123903
vt 0.253888 0.131342
vt 0.181481 0.039107
vt 0.824054 0.144497
vt 0.999908 0.425147
vt 0.886562 0.419951
vt 0.748592 0.231569
vt 0.286227 0.317310
vt 0.266546 0.365142
vt 0.259066 0.360875
vt 0.278073 0.314813
vt 0.503088 0.119171
vt 0.480560 0.214983
vt 0.526055 0.000092
vt 0.285857 0.652425
vt 0.228025 0.742001
vt 0.335335 0.574250
vt 0.376741 0.502485
vt 0.409140 0.433370
vt 0.436270 0.365295
vt 0.459718 0.293687
vt 0.766534 0.580972
vt 0.792204 0.532041
vt 0.870625 0.594030
vt 0.118713 0.480903
vt 0.000092 0.504952
vt 0.103511 0.273048
vt 0.292367 0.200695
vt 0.295789 0.263587
vt 0.286568 0.263046
vt 0.281832 0.203145
vt 0.794977 0.479607
vt 0.776311 0.485720
vt 0.759220 0.478051
vt 0.993329 0.444591
vt 0.887304 0.433098
vt 0.824176 0.447961
vt 0.191935 0.453452
vt 0.124224 0.494379
vt 0.185243 0.444496
vt 0.739219 0.653338
vt 0.768240 0.712373
vt 0.236099 0.409845
vt 0.228779 0.403494
vt 0.743166 0.616613
vt 0.713661 0.583676
vt 0.735416 0.596280
vt 0.000092 0.527184
vt 0.711251 0.492157
vt 0.848379 0.793605
vt 0.694710 0.535386
vt 0.759157 0.518506
vt 0.741576 0.561059
vn 0.0194 -0.0298 -0.9994
vn 0.1206 0.3601 -0.9251
vn 0.7191 0.2919 -0.6306
vn 0.6390 -0.0234 -0.7689
vn 0.9729 0.1500 -0.1761
vn 0.9786 -0.0491 -0.1999
vn 0.8437 0.1823 0.5050
vn 0.8490 -0.0468 0.5263
vn 0.4946 0.2903 0.8192
vn 0.3349 -0.0207 0.9420
vn -0.1794 0.3503 0.9193
vn -0.3211 -0.0312 0.9465
vn -0.8195 0.3223 0.4739
vn -0.8657 -0.0394 0.4990
vn -0.9329 0.3211 -0.1629
vn -0.9840 -0.0384 -0.1737
vn -0.9348 -0.3154 -0.1631
vn -0.6115 -0.3123 -0.7270
vn -0.2934 -0.8887 -0.3524
vn -0.4467 -0.8910 -0.0815
vn -0.6098 0.3186 -0.7257
vn -0.6422 -0.0377 -0.7656
vn 0.9348 -0.3154 -0.1631
vn 0.8201 -0.3188 0.4752
vn 0.3899 -0.8936 0.2225
vn 0.4467 -0.8910 -0.0815
vn -0.6422 0.0366 -0.7657
vn 0.0000 0.0363 -0.9993
vn -0.9841 0.0372 -0.1738
vn -0.8655 0.0380 0.4994
vn -0.3419 0.0385 0.9390
vn 0.3419 0.0385 0.9390
vn 0.8655 0.0380 0.4994
vn 0.9841 0.0372 -0.1738
vn 0.6422 0.0366 -0.7657
vn 0.4706 0.8765 0.1018
vn 0.4251 0.8982 0.1121
vn 0.0691 0.9976 0.0105
vn -0.3899 -0.8936 0.2225
vn 0.0000 -1.0000 -0.0000
vn 0.0000 -0.3111 -0.9504
vn 0.6115 -0.3123 -0.7270
vn 0.2934 -0.8887 -0.3524
vn 0.0000 -0.8877 -0.4603
vn 0.4978 0.8486 -0.1792
vn 0.7285 0.6848 -0.0180
vn 0.8325 0.5484 -0.0789
vn -0.4381 0.8954 -0.0799
vn -0.2876 0.8929 -0.3463
vn 0.1748 0.8719 -0.4574
vn -0.3234 -0.3209 0.8902
vn -0.8201 -0.3188 0.4752
vn -0.1533 -0.8952 0.4184
vn 0.0193 0.8641 0.5029
vn -0.3843 0.8969 0.2187
vn 0.3234 -0.3209 0.8902
vn 0.1533 -0.8952 0.4184
vn 0.4330 0.8169 0.3811
vn 0.7464 0.5635 0.3540
vn 0.7340 0.5846 0.3457
vn 0.8469 0.5284 0.0589
vn 0.7758 0.5843 0.2382
vn 0.7336 0.6521 0.1912
vn 0.7597 0.6165 0.2069
usemtl ChalkTex
s 1
f 1/1/1 2/2/2 3/3/3 4/4/4
f 4/4/4 3/3/3 5/5/5 6/6/6
f 6/6/6 5/5/5 7/7/7 8/8/8
f 8/8/8 7/7/7 9/9/9 10/10/10
f 10/10/10 9/9/9 11/11/11 12/12/12
f 12/12/12 11/11/11 13/13/13 14/14/14
f 14/14/14 13/13/13 15/15/15 16/16/16
f 17/17/17 18/18/18 19/19/19 20/20/20
f 16/21/16 15/22/15 21/23/21 22/24/22
f 22/24/22 21/23/21 2/2/2 1/1/1
f 23/25/23 24/26/24 25/27/25 26/28/26
f 27/29/27 22/24/22 1/1/1 28/30/28
f 29/31/29 16/21/16 22/24/22 27/29/27
f 30/32/30 14/14/14 16/16/16 29/33/29
f 31/34/31 12/12/12 14/14/14 30/32/30
f 32/35/32 10/10/10 12/12/12 31/34/31
f 33/36/33 8/8/8 10/10/10 32/35/32
f 34/37/34 6/6/6 8/8/8 33/36/33
f 35/38/35 4/4/4 6/6/6 34/37/34
f 28/30/28 1/1/1 4/4/4 35/38/35
f 36/39/36 37/40/37 38/41/38
f 39/42/39 20/43/20 40/44/40
f 41/45/41 42/46/42 43/47/43 44/48/44
f 3/3/3 45/49/45 46/50/46 47/51/47
f 21/23/21 15/22/15 48/52/48 49/53/49
f 3/3/3 2/2/2 50/54/50 45/49/45
f 51/55/51 52/56/52 39/42/39 53/57/53
f 13/13/13 11/11/11 54/58/54 55/59/55
f 24/26/24 56/60/56 57/61/57 25/27/25
f 18/18/18 41/45/41 44/48/44 19/19/19
f 58/62/58 9/9/9 59/63/59 60/64/60
f 2/2/2 21/23/21 49/53/49 50/54/50
f 42/46/42 23/25/23 26/28/26 43/47/43
f 52/56/52 17/65/17 20/43/20 39/42/39
f 5/5/5 3/3/3 47/51/47 61/66/61
f 15/15/15 13/13/13 55/59/55 48/67/48
f 56/60/56 51/55/51 53/57/53 57/61/57
f 11/11/11 9/9/9 58/62/58 54/58/54
f 55/59/55 54/58/54 38/41/38
f 43/47/43 26/28/26 40/44/40
f 19/19/19 44/48/44 40/44/40
f 25/27/25 57/61/57 40/44/40
f 53/57/53 39/42/39 40/44/40
f 44/48/44 43/47/43 40/44/40
f 20/20/20 19/19/19 40/44/40
f 26/28/26 25/27/25 40/44/40
f 57/61/57 53/57/53 40/44/40
f 58/62/58 36/39/36 38/41/38
f 50/54/50 49/53/49 38/41/38
f 37/40/37 45/49/45 38/41/38
f 48/67/48 55/59/55 38/41/38
f 54/58/54 58/62/58 38/41/38
f 45/49/45 50/54/50 38/41/38
f 49/53/49 48/52/48 38/41/38
f 62/68/62 61/66/61 63/69/63 64/70/64
f 59/63/59 62/68/62 64/70/64 60/64/60
f 61/66/61 47/51/47 46/50/46 63/69/63
f 36/39/36 58/62/58 60/64/60 64/70/64
f 7/7/7 5/5/5 61/66/61 62/68/62
f 37/40/37 36/39/36 64/70/64 63/69/63
f 45/49/45 37/40/37 63/69/63 46/50/46
f 9/9/9 7/7/7 62/68/62 59/63/59
f 41/45/41 28/30/28 35/38/35 42/46/42
f 42/46/42 35/38/35 34/37/34 23/25/23
f 23/25/23 34/37/34 33/36/33 24/26/24
f 24/26/24 33/36/33 32/35/32 56/60/56
f 56/60/56 32/35/32 31/34/31 51/55/51
f 51/55/51 31/34/31 30/32/30 52/56/52
f 52/56/52 30/32/30 29/33/29 17/65/17
f 17/17/17 29/31/29 27/29/27 18/18/18
f 18/18/18 27/29/27 28/30/28 41/45/41
